# xmcd
#
# Track frame offsets: 
#        151
#        8528
#        33167
#        51232
#        71761
#        95771
#        110943
#        132027
#        153600
#        172044
#        192015
#        210658
#
# Disc length: 3033 seconds
#
# Revision: 0
# Processed by: cddbd v1.5PL3 Copyright (c) Steve Scherf et al.
# Submitted via: ExactAudioCopy v0.95a3
#
DISCID=a60bd70c
DTITLE=Radiohead - You can scream
DYEAR=2003
DGENRE=Rock
TTITLE0=Intro
TTITLE1=There There
TTITLE2=2+2=5
TTITLE3=Lucky
TTITLE4=Talk Show Host
TTITLE5=Scatterbrain
TTITLE6=The National Anthem
TTITLE7=I Might Be Wrong
TTITLE8=The Gloaming
TTITLE9=Sail To The Moon
TTITLE10=No Surprises
TTITLE11=Go To Sleep
EXTD=
EXTT0=
EXTT1=
EXTT2=
EXTT3=
EXTT4=
EXTT5=
EXTT6=
EXTT7=
EXTT8=
EXTT9=
EXTT10=
EXTT11=
PLAYORDER=
